<?xml version="1.0" standalone="no"?>
<!DOCTYPE svg PUBLIC "-//W3C//DTD SVG 20010904//EN"
 "http://www.w3.org/TR/2001/REC-SVG-20010904/DTD/svg10.dtd">
<svg version="1.0" xmlns="http://www.w3.org/2000/svg"
 width="512.000000pt" height="512.000000pt" viewBox="0 0 512.000000 512.000000"
 preserveAspectRatio="xMidYMid meet">

<g transform="translate(0.000000,512.000000) scale(0.100000,-0.100000)"
fill="#000000" stroke="none">
<path d="M2000 4724 c-198 -50 -483 -178 -652 -291 -338 -227 -591 -516 -769
-877 -375 -763 -273 -1675 261 -2346 145 -181 378 -385 584 -510 497 -300
1107 -391 1671 -249 44 11 91 27 104 36 42 27 180 347 245 569 27 93 26 125
-6 151 -35 30 -65 26 -170 -25 -394 -191 -809 -220 -1208 -85 -834 281 -1277
1184 -988 2013 207 594 733 997 1371 1052 120 10 141 15 163 34 17 17 24 34
24 61 0 32 -7 44 -57 91 -153 143 -416 348 -484 376 -29 12 -42 12 -89 0z"/>
<path d="M3312 4634 c-34 -23 -45 -60 -29 -93 7 -14 51 -73 98 -131 320 -398
572 -901 709 -1415 83 -310 119 -571 127 -915 6 -272 -2 -409 -39 -672 -20
-145 -20 -158 -5 -181 22 -35 64 -43 96 -19 47 34 179 235 259 392 160 316
235 631 235 990 0 848 -476 1610 -1238 1981 -165 80 -182 85 -213 63z"/>
<path d="M2443 3520 c-218 -31 -454 -156 -584 -311 -213 -253 -283 -560 -199
-869 84 -305 327 -552 635 -646 83 -26 104 -28 260 -28 148 -1 180 2 250 22
443 127 733 548 684 996 -50 465 -421 817 -886 840 -54 3 -126 1 -160 -4z"/>
</g>
</svg>
